<svg id="Group_4" data-name="Group 4" xmlns="http://www.w3.org/2000/svg" width="760" height="768" viewBox="0 0 760 768">
  <path id="wave_1_" data-name="wave (1)" d="M0,90.644l12.8,3.847c12.8,3.7,38.4,11.613,64,9.564,25.6-1.906,51.2-13.411,76.8-11.5,25.6,2.049,51.2,17.15,76.8,24.951,25.6,7.658,51.2,7.658,76.8,11.505,25.6,3.7,51.2,11.613,76.8,7.658s51.2-19.055,76.8-32.61C486.4,90.644,512,79.139,537.6,86.8c25.6,7.8,51.2,34.407,76.8,30.7,25.6-3.847,51.2-38.362,76.8-46.02,25.6-7.8,51.2,11.613,64,21.069l12.8,9.6v57.525H0Z" transform="translate(829.674) rotate(90)" fill="#11ab63"/>
  <rect id="Rectangle_9" data-name="Rectangle 9" width="683" height="768" fill="#11ab63"/>
</svg>
