<?xml version="1.0" standalone="no"?><svg xmlns="http://www.w3.org/2000/svg" viewBox="0 0 1440 320"><path fill="#11AB63" fill-opacity="1" d="M0,128L24,138.7C48,149,96,171,144,165.3C192,160,240,128,288,133.3C336,139,384,181,432,202.7C480,224,528,224,576,234.7C624,245,672,267,720,256C768,245,816,203,864,165.3C912,128,960,96,1008,117.3C1056,139,1104,213,1152,202.7C1200,192,1248,96,1296,74.7C1344,53,1392,107,1416,133.3L1440,160L1440,320L1416,320C1392,320,1344,320,1296,320C1248,320,1200,320,1152,320C1104,320,1056,320,1008,320C960,320,912,320,864,320C816,320,768,320,720,320C672,320,624,320,576,320C528,320,480,320,432,320C384,320,336,320,288,320C240,320,192,320,144,320C96,320,48,320,24,320L0,320Z"></path></svg>